<svg width="18" height="16" viewBox="0 0 18 16" fill="none" xmlns="http://www.w3.org/2000/svg">
<g clip-path="url(#clip0_18_300)">
<path d="M15.3552 6.59004V6.09004C15.3646 4.59936 14.7834 3.16561 13.7387 2.10219C12.694 1.03877 11.2708 0.43219 9.78023 0.415039H9.72523C8.43627 0.418753 7.18746 0.863867 6.18674 1.67627C5.18602 2.48868 4.49376 3.61935 4.22523 4.88004C3.23465 4.88004 2.28464 5.27355 1.58419 5.974C0.883742 6.67444 0.490234 7.62446 0.490234 8.61504C0.490234 9.60562 0.883742 10.5556 1.58419 11.2561C2.28464 11.9565 3.23465 12.35 4.22523 12.35H14.5652C15.2788 12.3578 15.9706 12.1048 16.5109 11.6387C17.0512 11.1726 17.4028 10.5253 17.4998 9.81834C17.5967 9.11139 17.4324 8.39334 17.0375 7.79896C16.6427 7.20458 16.0445 6.77472 15.3552 6.59004Z" fill="#0085FF"/>
<path d="M14.79 14.5899H9.42504V13.3899H8.42504V14.5899H3.04004C2.90743 14.5899 2.78025 14.6426 2.68649 14.7363C2.59272 14.8301 2.54004 14.9573 2.54004 15.0899C2.54004 15.2225 2.59272 15.3497 2.68649 15.4434C2.78025 15.5372 2.90743 15.5899 3.04004 15.5899H14.79C14.9226 15.5899 15.0498 15.5372 15.1436 15.4434C15.2374 15.3497 15.29 15.2225 15.29 15.0899C15.29 14.9573 15.2374 14.8301 15.1436 14.7363C15.0498 14.6426 14.9226 14.5899 14.79 14.5899Z" fill="#0085FF"/>
</g>
<defs>
<clipPath id="clip0_18_300">
<rect width="18" height="16" fill="white"/>
</clipPath>
</defs>
</svg>
