<svg width="20" height="18" viewBox="0 0 20 18" fill="none" xmlns="http://www.w3.org/2000/svg">
<g clip-path="url(#clip0_18_305)">
<path d="M19.7218 3.375H16.8746C16.5273 1.75781 15.1385 0.5625 13.4718 0.5625C11.8051 0.5625 10.4162 1.75781 10.069 3.375H0.277344V4.78125H10.069C10.4162 6.39844 11.8051 7.59375 13.4718 7.59375C15.1385 7.59375 16.5273 6.39844 16.8746 4.78125H19.7218V3.375ZM13.4718 6.1875C12.2912 6.1875 11.3885 5.27344 11.3885 4.07812C11.3885 2.88281 12.2912 1.96875 13.4718 1.96875C14.6523 1.96875 15.5551 2.88281 15.5551 4.07812C15.5551 5.27344 14.6523 6.1875 13.4718 6.1875Z" fill="#787878"/>
<path d="M0.277344 14.625H3.12457C3.47179 16.2422 4.86068 17.4375 6.52734 17.4375C8.19401 17.4375 9.5829 16.2422 9.93012 14.625H19.7218V13.2188H9.93012C9.5829 11.6016 8.19401 10.4062 6.52734 10.4062C4.86068 10.4062 3.47179 11.6016 3.12457 13.2188H0.277344V14.625ZM6.52734 11.8125C7.7079 11.8125 8.61068 12.7266 8.61068 13.9219C8.61068 15.1172 7.7079 16.0312 6.52734 16.0312C5.34679 16.0312 4.44401 15.1172 4.44401 13.9219C4.44401 12.7266 5.34679 11.8125 6.52734 11.8125Z" fill="#787878"/>
</g>
<defs>
<clipPath id="clip0_18_305">
<rect width="20" height="18" fill="white"/>
</clipPath>
</defs>
</svg>
